<?xml version="1.0" encoding="utf-8"?>
<!-- Generator: Adobe Illustrator 24.1.2, SVG Export Plug-In . SVG Version: 6.00 Build 0)  -->
<svg version="1.1" xmlns="http://www.w3.org/2000/svg" xmlns:xlink="http://www.w3.org/1999/xlink" x="0px" y="0px"
	 viewBox="0 0 3710 3710" style="enable-background:new 0 0 3710 3710;" xml:space="preserve">
<style type="text/css">
	.st0{opacity:0.5;fill:#FFC200;}
	.st1{fill:url(#SVGID_1_);}
	.st2{fill:url(#SVGID_2_);}
	.st3{fill:url(#SVGID_3_);}
	.st4{fill:url(#SVGID_4_);}
	.st5{opacity:0.65;fill:#FFFFFF;}
	.st6{fill:#FFFFFF;}
	.st7{fill:#F4F7FA;}
	.st8{opacity:0.7;}
	.st9{fill:url(#SVGID_5_);}
	.st10{fill:url(#SVGID_6_);}
	.st11{fill:url(#SVGID_7_);}
	.st12{opacity:0.37;fill:#FFFFFF;}
	.st13{opacity:0.74;fill:#FFFFFF;}
	.st14{fill:url(#SVGID_8_);}
	.st15{fill:url(#SVGID_9_);}
	.st16{fill:url(#SVGID_10_);}
	.st17{fill:url(#SVGID_11_);}
	.st18{fill:url(#SVGID_12_);}
	.st19{fill:url(#SVGID_13_);}
	.st20{fill:url(#SVGID_14_);}
	.st21{fill:url(#SVGID_15_);}
	.st22{fill:url(#SVGID_16_);}
	.st23{fill:url(#SVGID_17_);}
	.st24{fill:url(#SVGID_18_);}
	.st25{fill:url(#SVGID_19_);}
	.st26{fill:url(#SVGID_20_);}
	.st27{fill:url(#SVGID_21_);}
	.st28{fill:url(#SVGID_22_);}
	.st29{fill:url(#SVGID_23_);}
	.st30{fill:url(#SVGID_24_);}
	.st31{fill:url(#SVGID_25_);}
	.st32{fill:url(#SVGID_26_);}
	.st33{fill:url(#SVGID_27_);}
</style>
<g id="Background">
</g>
<g id="Illustration">
	<g>
		<path class="st0" d="M3116.47,2335.68c-267.18,630.01-978.87,982.94-1596.06,887.74c-100.43-15.49-375.76-61.64-619.52-279.34
			C431.63,2524.98,331.27,1695.12,709.81,1110.3c275.51-425.65,769.39-666.94,1238.67-654.87c101.08,2.6,488.48,18.62,828.93,299.76
			c50.01,41.29,160.3,139.42,259.7,295.09C3270.53,1415.82,3290.59,1925.1,3116.47,2335.68z"/>
		<g>
			<g>
				<linearGradient id="SVGID_1_" gradientUnits="userSpaceOnUse" x1="1858.7946" y1="3292.5278" x2="1823.3153" y2="2590.0474">
					<stop  offset="0" style="stop-color:#2B3582"/>
					<stop  offset="1" style="stop-color:#150E42"/>
				</linearGradient>
				<polygon class="st1" points="1562.31,2495.03 1503.38,3023.51 2187.03,3023.51 2097.99,2495.03 				"/>
				<linearGradient id="SVGID_2_" gradientUnits="userSpaceOnUse" x1="1861.0028" y1="3027.4536" x2="1534.5968" y2="3744.1267">
					<stop  offset="0" style="stop-color:#2B3582"/>
					<stop  offset="1" style="stop-color:#150E42"/>
				</linearGradient>
				<path class="st2" d="M2334.29,3131.64H1333.72c-27.18,0-47.6-19.35-42.34-40.14l12.84-50.78c3.86-15.27,20.66-26.48,40.61-27.1
					l964.59-30.1c20.85-0.65,39.3,10.41,43.85,26.29l23.15,80.88C2382.43,3111.69,2361.92,3131.64,2334.29,3131.64z"/>
				<linearGradient id="SVGID_3_" gradientUnits="userSpaceOnUse" x1="543.9349" y1="1868.3162" x2="3144.553" y2="1868.3162">
					<stop  offset="0" style="stop-color:#2B3582"/>
					<stop  offset="1" style="stop-color:#150E42"/>
				</linearGradient>
				<path class="st3" d="M543.93,1144.22v1355.95c0,111.54,88.89,202.76,200.4,205.64c495.26,12.77,1770.85,43.74,2242.31,36.79
					c81.03-1.19,146.67-66.04,149.01-147.04c9.09-315,23.86-1072.49-30.78-1424.16c-11.51-74.06-74.02-129.44-148.93-131.83
					c-414.96-13.27-1794.61-55.43-2265.84-44.84C608.83,996.55,543.93,1062.93,543.93,1144.22z"/>
				<linearGradient id="SVGID_4_" gradientUnits="userSpaceOnUse" x1="1575.7234" y1="1317.7755" x2="2549.793" y2="3165.8726">
					<stop  offset="0" style="stop-color:#FDF53F"/>
					<stop  offset="0.6645" style="stop-color:#E57A58"/>
					<stop  offset="1" style="stop-color:#D93C65"/>
				</linearGradient>
				<path class="st4" d="M629.02,1137.62v1288.24c0,65.13,52.28,118.19,117.4,119.17l2172.4,32.48
					c64.56,0.97,117.48-50.98,117.72-115.54l4.4-1276.73c0.17-46.17-36.61-83.99-82.76-85.12l-2235.01-54.38
					C671.54,1044.49,629.02,1085.99,629.02,1137.62z"/>
				<path class="st5" d="M3056.33,2630.24c-0.02,0-0.05,0-0.07,0L628.95,2581.1c-1.97-0.04-3.54-1.67-3.5-3.64
					c0.04-1.97,1.76-3.61,3.64-3.5l2427.31,49.14c1.97,0.04,3.54,1.67,3.5,3.64C3059.86,2628.68,3058.27,2630.24,3056.33,2630.24z"
					/>
				<path class="st6" d="M1872.35,3027.69c-1.95,0-3.54-1.56-3.57-3.52c-0.03-1.97,1.55-3.6,3.52-3.63l41.33-0.6
					c0.02,0,0.03,0,0.05,0c1.95,0,3.54,1.56,3.57,3.52c0.03,1.97-1.55,3.6-3.52,3.63l-41.33,0.6
					C1872.38,3027.69,1872.37,3027.69,1872.35,3027.69z"/>
				<path class="st6" d="M1328.42,3103.96c-0.19,0-0.38-0.01-0.57-0.05c-1.95-0.31-3.28-2.14-2.96-4.09l5.9-36.93
					c3.19-19.99,20.21-34.72,40.45-35.02l438.41-6.41c1.96-0.03,3.6,1.55,3.63,3.52c0.03,1.97-1.55,3.6-3.52,3.63l-438.41,6.41
					c-16.77,0.25-30.86,12.44-33.5,29l-5.9,36.93C1331.67,3102.7,1330.15,3103.96,1328.42,3103.96z"/>
			</g>
			<g>
				<path class="st7" d="M789.41,2426.03l490.65,7.61c27.88,0.43,50.91-21.67,51.62-49.54l5.79-226.84
					c0.73-28.56-22.2-52.11-50.77-52.15l-490.83-0.63c-27.6-0.04-50.19,21.96-50.9,49.55l-5.61,219.86
					C738.65,2402.16,761.13,2425.59,789.41,2426.03z"/>
				<g>
					<g class="st8">
						<polygon class="st7" points="2338.13,1931.16 2428.13,1932.21 2444.93,1274.43 2355.02,1269.82 						"/>
						<polygon class="st7" points="2175.71,1929.25 2267.46,1930.33 2275.94,1598.27 2184.24,1595.38 						"/>
						<polygon class="st7" points="2010.11,1927.31 2103.66,1928.41 2122.4,1194.3 2028.96,1189.16 						"/>
						<polygon class="st7" points="1841.25,1925.33 1936.64,1926.45 1952.76,1295.09 1857.46,1290.47 						"/>
						<polygon class="st7" points="1669.02,1923.31 1766.32,1924.45 1770.68,1753.48 1673.41,1751.38 						"/>
						<polygon class="st7" points="1493.31,1921.24 1592.58,1922.41 1602.94,1516.54 1503.74,1513.07 						"/>
						<polygon class="st7" points="1314.04,1919.14 1415.32,1920.33 1430.41,1329.45 1329.21,1324.88 						"/>
						<polygon class="st7" points="1131.08,1916.99 1234.45,1918.21 1245.57,1482.9 1142.26,1479.17 						"/>
						<polygon class="st7" points="944.31,1914.8 1049.84,1916.04 1067.26,1233.84 961.84,1228.62 						"/>
						<polygon class="st7" points="753.63,1912.57 861.38,1913.83 880.94,1147.64 773.31,1141.85 						"/>
					</g>
				</g>
				<path class="st7" d="M2536.67,1803.21l397.77,7.79c12.33,0.24,22.55-9.52,22.86-21.85l0,0c0.32-12.41-9.51-22.72-21.92-23
					l-397.74-8.9c-12.36-0.28-22.61,9.5-22.93,21.85l-0.03,1.1C2514.37,1792.64,2524.23,1802.96,2536.67,1803.21z"/>
				<path class="st7" d="M2538.57,1724.54l397.72,9.68c12.37,0.3,22.65-9.48,22.97-21.85l0,0c0.32-12.37-9.45-22.66-21.82-23
					l-397.69-10.78c-12.4-0.34-22.72,9.45-23.03,21.85l-0.03,1.1C2516.38,1713.94,2526.18,1724.24,2538.57,1724.54z"/>
				<path class="st7" d="M2536.59,2415.98l397.72,9.68c12.37,0.3,22.65-9.48,22.97-21.85l0,0c0.32-12.37-9.45-22.66-21.82-23
					l-397.69-10.78c-12.4-0.34-22.72,9.45-23.03,21.85l-0.03,1.1C2514.39,2405.38,2524.19,2415.68,2536.59,2415.98z"/>
				<path class="st7" d="M2517.77,2278.79c-0.59,19.86,15.35,36.28,35.22,36.28l371.66-0.03c17.63,0.79,32.48-13.05,32.93-30.69
					l9.59-375.43c0.44-17.4-13.29-31.86-30.68-32.32l-375.02-9.92c-17.42-0.46-31.91,13.29-32.35,30.71L2517.77,2278.79z"/>
				<g>
					<path class="st7" d="M905.69,2233.97c37.58,2.38,43.73-19.26,80.82-20.42c62.91-1.97,76.73,59.56,137.29,60.17
						c49.43,0.5,62.92-40.46,111.72-34.64c36.28,4.33,42.82,28.72,78.18,33.1c7.06,0.87,14.03,0.78,20.85-0.04l-2.73,107.02
						c-0.78,30.61-26.07,54.89-56.69,54.41l-479.45-7.44c-31.72-0.49-56.94-26.77-56.13-58.49l5.01-196.32
						c31.68,3.1,54.67,10.87,71.08,18.57C855.1,2208.41,867.77,2231.57,905.69,2233.97z"/>
				</g>
				<path class="st7" d="M2581.61,1629.23h319.84c33.34,0,60.61-26.58,61.46-59.91l6.52-255.28c0.88-34.56-26.89-63.05-61.46-63.05
					h-319.84c-33.34,0-60.61,26.58-61.46,59.91l-6.52,255.28C2519.27,1600.73,2547.04,1629.23,2581.61,1629.23z"/>
				<path class="st7" d="M785.59,2069.38l1604.52,5.13c19.11,0.06,34.78-15.16,35.27-34.27l0,0c0.5-19.66-15.22-35.92-34.89-36.06
					l-1604.34-11.88c-19.17-0.14-34.92,15.1-35.41,34.27l-0.17,6.75C750.04,2053.04,765.86,2069.32,785.59,2069.38z"/>
				<path class="st7" d="M1453.9,2416.01l909.53,27c28.47,0.85,52.21-21.62,52.94-50.09l6.03-235.98
					c0.74-28.82-22.36-52.62-51.19-52.74l-910.12-3.82c-27.97-0.12-50.91,22.15-51.63,50.11l-5.43,212.79
					C1403.29,2391.6,1425.59,2415.17,1453.9,2416.01z"/>
			</g>
		</g>
		<g>
			<g>
				<linearGradient id="SVGID_5_" gradientUnits="userSpaceOnUse" x1="408.5241" y1="2404.2766" x2="2495.8896" y2="656.8748">
					<stop  offset="0" style="stop-color:#53D8FF"/>
					<stop  offset="1" style="stop-color:#3840F7"/>
				</linearGradient>
				<path class="st9" d="M2713.11,1598.23H1067.72c-36.41,0-65.93-29.52-65.93-65.93V774.55c0-36,28.88-65.35,64.88-65.92
					l1648.28-26.08c72.5-1.15,131.88,57.31,131.88,129.81v652.14C2846.84,1538.35,2786.96,1598.23,2713.11,1598.23z"/>
				<linearGradient id="SVGID_6_" gradientUnits="userSpaceOnUse" x1="1484.5526" y1="1536.751" x2="3599.1152" y2="-319.4407">
					<stop  offset="0" style="stop-color:#53D8FF"/>
					<stop  offset="1" style="stop-color:#3840F7"/>
				</linearGradient>
				<path class="st10" d="M2670.47,1564.25H1124.28c-34.21,0-61.95-26.59-61.95-59.4v-682.7c0-32.44,27.14-58.87,60.97-59.39
					l1548.91-23.5c68.13-1.03,123.93,51.63,123.93,116.95v587.54C2796.14,1510.3,2739.88,1564.25,2670.47,1564.25z"/>
				<linearGradient id="SVGID_7_" gradientUnits="userSpaceOnUse" x1="738.63" y1="1820.1943" x2="2377.4431" y2="448.2904">
					<stop  offset="0" style="stop-color:#53D8FF"/>
					<stop  offset="1" style="stop-color:#3840F7"/>
				</linearGradient>
				<path class="st11" d="M2847.13,911.58v-99.22c0-72.51-59.53-130.96-132.03-129.81l-1648.68,26.08
					c-36,0.57-65.29,29.91-65.29,65.92v137.03H2847.13z"/>
				
					<ellipse transform="matrix(0.2298 -0.9732 0.9732 0.2298 42.7829 1718.186)" class="st12" cx="1106.9" cy="832.06" rx="24.17" ry="24.17"/>
			</g>
			<g>
				<g>
					<path class="st13" d="M1396.77,1169.32c14.56-26.75,41.8-45.41,73.75-48.35l2.23-133.67
						c-91.01,0.59-169.31,54.14-204.36,132.35L1396.77,1169.32z"/>
					<path class="st6" d="M1496.02,1121.98c42.99,7.44,76.42,43.15,80.42,86.67l131.78,7.84
						c-1.67-117.46-93.03-215.98-209.98-227.97L1496.02,1121.98z"/>
					<path class="st13" d="M1575.42,1233.83c-7.79,44.29-46.67,77.57-93.71,76.99c-13.9-0.17-27.13-3.29-39.09-8.74l-71.31,113.57
						c32.95,17.93,70.58,28.17,110.39,28.34c118.52,0.53,214.67-88.42,225.51-202.52L1575.42,1233.83z"/>
					<path class="st13" d="M1349.31,1402.06l71.49-113.65c-21.55-17.83-35.32-44.64-35.32-74.44c0-7.2,0.81-14.2,2.34-20.91
						l-128.52-49.51c-6.76,21.4-10.41,44.23-10.41,67.96C1248.89,1290.09,1288.74,1359.9,1349.31,1402.06z"/>
				</g>
				<g>
					<path class="st6" d="M1887.21,1179.47c13.72-25.98,39.41-44.12,69.53-47l2.1-129.8c-85.81,0.65-159.61,52.71-192.64,128.66
						L1887.21,1179.47z"/>
					<path class="st13" d="M1980.8,1133.44c40.55,7.2,72.08,41.86,75.85,84.12l124.34,7.55c-1.58-114.11-87.79-209.74-198.09-221.28
						L1980.8,1133.44z"/>
					<path class="st13" d="M2055.69,1242.03c-7.35,43.02-44.02,75.36-88.39,74.81c-13.11-0.16-25.58-3.18-36.86-8.47l-67.23,110.29
						c31.07,17.4,66.54,27.34,104.08,27.51c111.79,0.5,202.51-85.92,212.74-196.77L2055.69,1242.03z"/>
					<path class="st13" d="M1842.48,1405.46l67.39-110.37c-20.31-17.3-33.3-43.33-33.3-72.26c0-6.99,0.76-13.78,2.2-20.31
						l-121.13-47.99c-6.37,20.78-9.81,42.94-9.81,65.97C1747.84,1296.79,1785.39,1364.55,1842.48,1405.46z"/>
				</g>
				<g>
					<path class="st13" d="M2349.97,1189.05c12.96-25.26,37.22-42.9,65.67-45.71l1.99-126.16c-81.04,0.71-150.72,51.35-181.9,125.17
						L2349.97,1189.05z"/>
					<path class="st13" d="M2438.36,1144.27c38.31,6.97,68.1,40.65,71.66,81.72l117.51,7.28
						c-1.49-110.94-82.97-203.85-187.19-214.97L2438.36,1144.27z"/>
					<path class="st6" d="M2509.11,1249.77c-6.94,41.82-41.59,73.27-83.5,72.75c-12.38-0.15-24.16-3.08-34.81-8.22l-63.49,107.19
						c29.34,16.9,62.84,26.56,98.3,26.71c105.61,0.47,191.36-83.56,201.03-191.33L2509.11,1249.77z"/>
					<path class="st13" d="M2307.72,1408.67l63.64-107.27c-19.18-16.8-31.44-42.1-31.44-70.21c0-6.79,0.72-13.4,2.08-19.73
						l-114.36-46.56c-6.01,20.19-9.26,41.72-9.26,64.1C2218.38,1303.11,2253.83,1368.93,2307.72,1408.67z"/>
				</g>
			</g>
		</g>
		<g>
			
				<linearGradient id="SVGID_8_" gradientUnits="userSpaceOnUse" x1="7370.2759" y1="3083.9155" x2="6698.3188" y2="3814.8167" gradientTransform="matrix(1 0 0 1 -6061.9053 0)">
				<stop  offset="0" style="stop-color:#2B3582"/>
				<stop  offset="1" style="stop-color:#150E42"/>
			</linearGradient>
			<path class="st14" d="M1095.96,3138.36c0,0-6.96,39.4-10.37,78.39c-1.33,15.24,10.42,28.47,25.7,29.11
				c51.93,2.16,163.02,6.37,202.88,4.59c5.99-0.27,9.91-6.4,7.69-11.98c-1.86-4.67-5.44-8.45-10.01-10.55l-183.5-84.33
				L1095.96,3138.36z"/>
			
				<linearGradient id="SVGID_9_" gradientUnits="userSpaceOnUse" x1="7152.1685" y1="3138.2004" x2="7211.855" y2="3138.2004" gradientTransform="matrix(1 0 0 1 -6061.9053 0)">
				<stop  offset="0" style="stop-color:#FEBBBA"/>
				<stop  offset="1" style="stop-color:#FF928E"/>
			</linearGradient>
			<path class="st15" d="M1090.26,3115.22l5.59,47.12c0,0,32.14,14.96,54.09-1.89l-13.31-52.51L1090.26,3115.22z"/>
			
				<linearGradient id="SVGID_10_" gradientUnits="userSpaceOnUse" x1="7423.1851" y1="2257.345" x2="6851.4146" y2="3032.3066" gradientTransform="matrix(1 0 0 1 -6061.9053 0)">
				<stop  offset="0" style="stop-color:#2B3582"/>
				<stop  offset="1" style="stop-color:#150E42"/>
			</linearGradient>
			<path class="st16" d="M1094.47,2229.3c-2.42,12.31-12.96,614.09,51.36,883.77c1.05,4.4-1.18,8.94-5.37,10.65
				c-9.87,4.03-29.21,9.87-52.39,10.65c-7.18,0.24-13.61-4.42-15.64-11.31c-18.39-62.57-106.5-376.06-117.99-675.53
				c-12.84-334.63,0-11.39,0-11.39l7.53-206.85L1094.47,2229.3z"/>
			
				<linearGradient id="SVGID_11_" gradientUnits="userSpaceOnUse" x1="7219.5327" y1="2945.3296" x2="6547.5762" y2="3676.231" gradientTransform="matrix(1 0 0 1 -6061.9053 0)">
				<stop  offset="0" style="stop-color:#2B3582"/>
				<stop  offset="1" style="stop-color:#150E42"/>
			</linearGradient>
			<path class="st17" d="M884.88,3158.92c0,0-11.08,19.89-21.8,72.74c-1.94,9.55,4.73,18.68,14.42,19.63
				c17.15,1.69,43.55,3.86,64.69,3.71c9.75-0.07,17.36-8.56,16.18-18.23c-2.34-19.29-9.64-50.94-32.18-75.61L884.88,3158.92z"/>
			
				<linearGradient id="SVGID_12_" gradientUnits="userSpaceOnUse" x1="6937.0586" y1="3135.1401" x2="6988.5923" y2="3135.1401" gradientTransform="matrix(1 0 0 1 -6061.9053 0)">
				<stop  offset="0" style="stop-color:#FEBBBA"/>
				<stop  offset="1" style="stop-color:#FF928E"/>
			</linearGradient>
			<path class="st18" d="M875.15,3098.31l13.06,71.26c0,0,12.92,9.61,38.47,2.64l-6.24-76.67L875.15,3098.31z"/>
			
				<linearGradient id="SVGID_13_" gradientUnits="userSpaceOnUse" x1="7321.2822" y1="2182.1597" x2="6749.5112" y2="2957.1213" gradientTransform="matrix(1 0 0 1 -6061.9053 0)">
				<stop  offset="0" style="stop-color:#2B3582"/>
				<stop  offset="1" style="stop-color:#150E42"/>
			</linearGradient>
			<path class="st19" d="M839.86,2247.76c-52.61,317.51,11.41,784.74,33,876.19c1.32,5.6,5.84,9.89,11.52,10.83
				c9.64,1.6,25.51,2.9,41.15-1.64c5.39-1.57,9.18-6.43,9.4-12.04c2.9-73.93-2.32-527.82,46.7-707.19
				c2.48-9.09,8.04-17.02,15.72-22.48l95.15-67.64l7.29-109.33L839.86,2247.76z"/>
			<g>
				
					<linearGradient id="SVGID_14_" gradientUnits="userSpaceOnUse" x1="6801.8413" y1="2138.0376" x2="7741.0122" y2="1462.1481" gradientTransform="matrix(1 0 0 1 -6061.9053 0)">
					<stop  offset="0" style="stop-color:#CB236D"/>
					<stop  offset="1" style="stop-color:#4C246D"/>
				</linearGradient>
				<path class="st20" d="M1175.09,1646.15c-157.66-2.6-331.62,41.4-331.62,41.4c-47,274.22-8.22,590.51-8.22,590.51
					c122.06,32.01,259.75-19.57,259.75-19.57c20.29-114.62,114.94-437.19,114.94-437.19c77.03-9.56,140.49-31.79,192.75-61.17
					c-39.86-46.21-58.65-105-66.82-139.76C1280.13,1637.7,1223.72,1646.96,1175.09,1646.15z"/>
				
					<linearGradient id="SVGID_15_" gradientUnits="userSpaceOnUse" x1="-2680.4028" y1="1225.7814" x2="-2575.0938" y2="1526.6648" gradientTransform="matrix(-1 0 0 1 -1086.623 0)">
					<stop  offset="0" style="stop-color:#FEBBBA"/>
					<stop  offset="1" style="stop-color:#FF928E"/>
				</linearGradient>
				<path class="st21" d="M1640.8,1413.92c-15.49-18.71-35.09-9.86-35.09-9.86c-23.2,98.01-144.85,177.47-269.84,216.31
					c8.16,34.76,26.95,93.55,66.82,139.76C1610.11,1643.51,1640.8,1413.92,1640.8,1413.92z"/>
			</g>
			<g>
				
					<linearGradient id="SVGID_16_" gradientUnits="userSpaceOnUse" x1="-2770.4119" y1="1257.2844" x2="-2665.1033" y2="1558.1667" gradientTransform="matrix(-1 0 0 1 -1086.623 0)">
					<stop  offset="0" style="stop-color:#FEBBBA"/>
					<stop  offset="1" style="stop-color:#FF928E"/>
				</linearGradient>
				<path class="st22" d="M1637.04,1418.68c1.62,5.15-17.15,13-28.2-8.07c-0.39-10.1-6.53-53.36-0.49-61.59
					c32.14-43.82,94.45-98.74,94.45-98.74c10.53,10.39,1.86,20.6,1.86,20.6l-30.23,31.49c6.32,11.43,14.03,21.07,17.65,34.89
					c2.74,10.47,1.06,21.65-4.22,31.17c-5.31,9.56-12.55,21.98-19.39,31.71C1655.51,1418.54,1637.04,1418.68,1637.04,1418.68z"/>
				
					<linearGradient id="SVGID_17_" gradientUnits="userSpaceOnUse" x1="-2689.5117" y1="1449.5176" x2="-2768.8359" y2="1289.5013" gradientTransform="matrix(-1 0 0 1 -1086.623 0)">
					<stop  offset="0" style="stop-color:#FEBBBA"/>
					<stop  offset="1" style="stop-color:#FF928E"/>
				</linearGradient>
				<path class="st23" d="M1661.21,1322.8l-27.55,23.35l-8.65,23.25l24.56,27.25c0,0,8.26-46.13,14.39-56.11
					S1666.92,1325.71,1661.21,1322.8z"/>
			</g>
			
				<linearGradient id="SVGID_18_" gradientUnits="userSpaceOnUse" x1="6678.084" y1="1966.0737" x2="7617.2549" y2="1290.1841" gradientTransform="matrix(1 0 0 1 -6061.9053 0)">
				<stop  offset="0" style="stop-color:#CB236D"/>
				<stop  offset="1" style="stop-color:#4C246D"/>
			</linearGradient>
			<path class="st24" d="M903.94,1840.21l-60.47-152.66c0,0-147.27,100.06-171.48,226.93c27.83,2.05,78.46,9.29,128.02,34.31
				C810.9,1888.88,903.94,1840.21,903.94,1840.21z"/>
			
				<linearGradient id="SVGID_19_" gradientUnits="userSpaceOnUse" x1="6730.5332" y1="2012.9762" x2="7116.4219" y2="2012.9762" gradientTransform="matrix(1 0 0 1 -6061.9053 0)">
				<stop  offset="0" style="stop-color:#FEBBBA"/>
				<stop  offset="1" style="stop-color:#FF928E"/>
			</linearGradient>
			<path class="st25" d="M1032.64,1983.86c0,0-165.34,93.44-221.13,13.65c-11.58-16.57-14.35-33.03-11.5-48.73
				c-49.56-25.02-100.2-32.26-128.02-34.31c-7.3,38.25-3.44,78.92,19.03,120.03c97.72,178.76,363.5-9.88,363.5-9.88L1032.64,1983.86
				z"/>
			<g>
				
					<linearGradient id="SVGID_20_" gradientUnits="userSpaceOnUse" x1="7233.167" y1="1738.6213" x2="7445.3535" y2="2622.7334" gradientTransform="matrix(1 0 0 1 -6061.9053 0)">
					<stop  offset="0" style="stop-color:#2B3582"/>
					<stop  offset="1" style="stop-color:#150E42"/>
				</linearGradient>
				<path class="st26" d="M1012.77,2102.08l90.24-315.13c1.02-3.58,4.08-6.19,7.77-6.62c16.35-1.91,63.72-7.26,118.42-11.89
					c65.89-5.57,142.4-10.09,188.12-6.25c6.5,0.55,10.43,7.42,7.54,13.27c-26,52.6-132.95,266.57-186.51,336.67
					c-1.78,2.32-4.52,3.68-7.44,3.65l-209.37-1.95C1015.46,2113.78,1011.09,2107.94,1012.77,2102.08z"/>
				
					<linearGradient id="SVGID_21_" gradientUnits="userSpaceOnUse" x1="7087.7715" y1="1972.5161" x2="7207.9912" y2="1972.5161" gradientTransform="matrix(1 0 0 1 -6061.9053 0)">
					<stop  offset="0" style="stop-color:#FEBBBA"/>
					<stop  offset="1" style="stop-color:#FF928E"/>
				</linearGradient>
				<path class="st27" d="M1034.57,2025.94c0,0-12.57-51.69-7.5-70.03c5.07-18.34,14.9-41.92,47.64-36.68
					c32.75,5.24,71.37,19.03,71.37,19.03s-1.95,23.89-26.84,16.18l15.43,11.94c0,0-2.21,19.12-23.23,8.91l14.35,15.84
					c0,0-9.03,15.71-24.49,5.63C1085.85,1986.7,1078.43,2032.17,1034.57,2025.94z"/>
			</g>
			
				<linearGradient id="SVGID_22_" gradientUnits="userSpaceOnUse" x1="7026.8423" y1="1600.438" x2="7179.4097" y2="1600.438" gradientTransform="matrix(1 0 0 1 -6061.9053 0)">
				<stop  offset="0" style="stop-color:#FEBBBA"/>
				<stop  offset="1" style="stop-color:#FF928E"/>
			</linearGradient>
			<path class="st28" d="M1015.39,1518.15l-50.17,145.08c-0.83,2.4,0.16,5.06,2.38,6.29c13.67,7.56,62.94,29.41,122.31-8.23
				c6.18-3.92,10.4-10.32,11.33-17.58l16.24-125.56H1015.39z"/>
			<g>
				
					<linearGradient id="SVGID_23_" gradientUnits="userSpaceOnUse" x1="3566.78" y1="5953.8789" x2="3373.0659" y2="6210.1465" gradientTransform="matrix(0.817 -0.5767 0.5767 0.817 -5259.3599 -1428.4956)">
					<stop  offset="0" style="stop-color:#FEBBBA"/>
					<stop  offset="1" style="stop-color:#FF928E"/>
				</linearGradient>
				<path class="st29" d="M1118.71,1356.02c1.47,2.09,46.52,164.83,46.52,164.83l-93.47,23.75l-65.61-147.9
					C1006.15,1396.7,1094.06,1321.09,1118.71,1356.02z"/>
				
					<linearGradient id="SVGID_24_" gradientUnits="userSpaceOnUse" x1="3418.8379" y1="6015.6968" x2="3650.2329" y2="6015.6968" gradientTransform="matrix(0.817 -0.5767 0.5767 0.817 -5259.3599 -1428.4956)">
					<stop  offset="0" style="stop-color:#2B3582"/>
					<stop  offset="1" style="stop-color:#150E42"/>
				</linearGradient>
				<path class="st30" d="M1041.35,1419.17l28.44,80.56c0.36,1.03,0.85,1.99,1.48,2.88c3.86,5.48,18.52,23.38,35.92,7.26
					c15.78-14.63,30.4-27.74,43.9-30.12c6.06-1.07,11.94,2.63,13.58,8.56c4.09,14.79,12.69,48.28,15.72,78.52
					c0.61,6.14-3.62,11.68-9.68,12.83c-18.26,3.47-56.96,9.7-89.28,7.42c-4.38-0.31-8.23-2.94-10.06-6.93
					c-8.9-19.46-36.19-78.5-46.34-93.78c-9.53-14.34-32.88-13.94-42.67-13.07c-3.21,0.28-6.37-0.75-8.79-2.87
					c-8.57-7.51-24.87-26.68-1.94-49.63c4.8-4.8,4.67-12.55-0.28-17.2c-9.85-9.26-20.38-25.69-3.97-46.06
					c16.68-20.71,38.7-17.41,52.19-12.49c5.45,1.99,11.4-0.31,14.37-5.31c1.69-2.84,4.63-4.99,9.74-4.55
					c6.88,0.59,12.67-5.15,12.54-12.05c-0.24-13.26,4.51-30.02,27.52-37.18c40.83-12.71,66.29,26.74,68.82,56.17
					s-42.53,40.7-69.02,38.71c-20.14-1.51-35.1,18.45-41.11,28.11C1040.53,1412.02,1040.15,1415.77,1041.35,1419.17z"/>
				
					<linearGradient id="SVGID_25_" gradientUnits="userSpaceOnUse" x1="3283.0642" y1="6156.8223" x2="3438.4395" y2="5997.4116" gradientTransform="matrix(0.817 -0.5767 0.5767 0.817 -5259.3599 -1428.4956)">
					<stop  offset="0" style="stop-color:#FEBBBA"/>
					<stop  offset="1" style="stop-color:#FF928E"/>
				</linearGradient>
				<path class="st31" d="M1035.68,1515.62c0,0-6.59-51.1-27.85-53.6c-21.26-2.5-41.95,14.97-20.81,43.65
					C1013.31,1541.34,1035.68,1515.62,1035.68,1515.62z"/>
			</g>
		</g>
		<g>
			
				<linearGradient id="SVGID_26_" gradientUnits="userSpaceOnUse" x1="1114.3201" y1="4791.4258" x2="-580.882" y2="6606.4917" gradientTransform="matrix(-0.3594 -0.9332 -0.9332 0.3594 7549.2515 1555.7941)">
				<stop  offset="0" style="stop-color:#CE1567"/>
				<stop  offset="1" style="stop-color:#7A1DBC"/>
			</linearGradient>
			<path class="st32" d="M2185.99,3200.07c340.12-168.84,602.5-434.43,631.77-990.19
				C2817.76,2209.88,1932.52,2505.43,2185.99,3200.07z"/>
			<path class="st6" d="M2241,3075.39c1.86,0,3.6-1.16,4.26-3.02c154.59-440.7,454.33-695.69,457.34-698.21
				c1.91-1.6,2.16-4.45,0.56-6.35c-1.6-1.91-4.44-2.17-6.35-0.56c-3.03,2.54-304.61,259.01-460.06,702.14
				c-0.82,2.35,0.41,4.92,2.76,5.75C2240,3075.31,2240.5,3075.39,2241,3075.39z"/>
		</g>
		<g>
			
				<linearGradient id="SVGID_27_" gradientUnits="userSpaceOnUse" x1="-139.4916" y1="4437.2871" x2="-1211.2737" y2="5584.8525" gradientTransform="matrix(0.1841 -0.9829 -0.9829 -0.1841 7859.9585 3086.6138)">
				<stop  offset="0" style="stop-color:#A737D5"/>
				<stop  offset="1" style="stop-color:#EF497A"/>
			</linearGradient>
			<path class="st33" d="M2220.35,3186.33c239.05,22.06,468.4-33.74,668.65-323.06C2889,2863.27,2314.57,2728.43,2220.35,3186.33z"
				/>
			<path class="st6" d="M2355.98,3109.93c1.28,0,2.55-0.54,3.44-1.59c134.92-159.04,436.76-210.36,439.79-210.86
				c2.46-0.41,4.12-2.72,3.72-5.18c-0.41-2.46-2.69-4.19-5.18-3.72c-3.06,0.5-308.17,52.39-445.21,213.92
				c-1.61,1.9-1.38,4.74,0.52,6.35C2353.92,3109.58,2354.95,3109.93,2355.98,3109.93z"/>
		</g>
	</g>
</g>
</svg>
