<?xml version="1.0" encoding="utf-8"?>
<!-- Generator: Adobe Illustrator 24.1.2, SVG Export Plug-In . SVG Version: 6.00 Build 0)  -->
<svg version="1.1" xmlns="http://www.w3.org/2000/svg" xmlns:xlink="http://www.w3.org/1999/xlink" x="0px" y="0px"
	 viewBox="0 0 750 500" style="enable-background:new 0 0 750 500;" xml:space="preserve">
<style type="text/css">
	.st0{fill:url(#SVGID_1_);}
	.st1{fill:#FFFFFF;}
	.st2{fill:url(#SVGID_2_);}
	.st3{fill:url(#SVGID_3_);}
	.st4{fill:url(#SVGID_4_);}
	.st5{fill:url(#SVGID_5_);}
	.st6{fill:url(#SVGID_6_);}
	.st7{fill:url(#SVGID_7_);}
	.st8{fill:url(#SVGID_8_);}
	.st9{fill:url(#SVGID_9_);}
	.st10{opacity:0.3;clip-path:url(#XMLID_6_);fill:#5757B5;}
	.st11{clip-path:url(#XMLID_11_);fill:url(#SVGID_10_);}
	.st12{opacity:0.1;clip-path:url(#XMLID_11_);fill:#5757B5;}
	.st13{opacity:0.3;clip-path:url(#XMLID_13_);fill:#5757B5;}
	.st14{opacity:0.3;clip-path:url(#SVGID_12_);fill:#5757B5;}
	.st15{clip-path:url(#SVGID_12_);}
	.st16{opacity:0.1;clip-path:url(#XMLID_14_);fill:#5757B5;}
	.st17{opacity:0.1;clip-path:url(#XMLID_15_);fill:#5757B5;}
	.st18{opacity:0.25;}
	.st19{fill:#412F8B;}
	.st20{font-family:'Dosis-ExtraBold';}
	.st21{font-size:82.8871px;}
	.st22{fill:url(#SVGID_13_);}
	.st23{fill:url(#SVGID_14_);}
	.st24{fill:url(#SVGID_15_);}
	.st25{fill:url(#SVGID_16_);}
</style>
<g id="BACKGROUND">
</g>
<g id="OBJECTS">
	<g>
		<g>
			<linearGradient id="SVGID_1_" gradientUnits="userSpaceOnUse" x1="139.6302" y1="145.4689" x2="169.1566" y2="145.4689">
				<stop  offset="0" style="stop-color:#FFCC4A"/>
				<stop  offset="0.2096" style="stop-color:#FFC74A"/>
				<stop  offset="0.4486" style="stop-color:#FFBA4A"/>
				<stop  offset="0.7021" style="stop-color:#FFA34A"/>
				<stop  offset="0.9641" style="stop-color:#FF834A"/>
				<stop  offset="1" style="stop-color:#FF7E4A"/>
			</linearGradient>
			<path class="st0" d="M154.39,160.23c-8.14,0-14.76-6.62-14.76-14.76c0-8.14,6.62-14.76,14.76-14.76
				c8.14,0,14.76,6.62,14.76,14.76C169.16,153.61,162.53,160.23,154.39,160.23z M154.39,133.71c-6.49,0-11.76,5.28-11.76,11.76
				c0,6.49,5.28,11.76,11.76,11.76c6.49,0,11.76-5.28,11.76-11.76C166.16,138.98,160.88,133.71,154.39,133.71z"/>
		</g>
		<g>
			<path class="st1" d="M564.07,110.97c-4.6,0-8.33-3.74-8.33-8.33c0-4.6,3.74-8.33,8.33-8.33s8.33,3.74,8.33,8.33
				C572.41,107.23,568.67,110.97,564.07,110.97z M564.07,97.3c-2.94,0-5.33,2.39-5.33,5.33c0,2.94,2.39,5.33,5.33,5.33
				c2.94,0,5.33-2.39,5.33-5.33C569.41,99.69,567.01,97.3,564.07,97.3z"/>
		</g>
		<g>
			<linearGradient id="SVGID_2_" gradientUnits="userSpaceOnUse" x1="610.1003" y1="335.7844" x2="642.6401" y2="274.6732">
				<stop  offset="0" style="stop-color:#8566FF"/>
				<stop  offset="0.1777" style="stop-color:#846BFF"/>
				<stop  offset="0.3803" style="stop-color:#8078FF"/>
				<stop  offset="0.5952" style="stop-color:#798FFF"/>
				<stop  offset="0.8171" style="stop-color:#6FAFFF"/>
				<stop  offset="1" style="stop-color:#66CFFF"/>
			</linearGradient>
			<path class="st2" d="M633.26,307.76c-8.53,0-15.47-6.94-15.47-15.47c0-8.53,6.94-15.47,15.47-15.47
				c8.53,0,15.47,6.94,15.47,15.47C648.74,300.81,641.8,307.76,633.26,307.76z M633.26,279.81c-6.88,0-12.47,5.6-12.47,12.47
				c0,6.88,5.6,12.47,12.47,12.47c6.88,0,12.47-5.6,12.47-12.47C645.74,285.4,640.14,279.81,633.26,279.81z"/>
		</g>
		<g>
			<linearGradient id="SVGID_3_" gradientUnits="userSpaceOnUse" x1="351.3958" y1="387.5612" x2="382.3431" y2="387.5612">
				<stop  offset="0" style="stop-color:#FF4A4A"/>
				<stop  offset="1" style="stop-color:#B32E2C"/>
			</linearGradient>
			<path class="st3" d="M366.87,403.03c-8.53,0-15.47-6.94-15.47-15.47c0-8.53,6.94-15.47,15.47-15.47
				c8.53,0,15.47,6.94,15.47,15.47C382.34,396.09,375.4,403.03,366.87,403.03z M366.87,375.09c-6.88,0-12.47,5.6-12.47,12.47
				c0,6.88,5.6,12.47,12.47,12.47c6.88,0,12.47-5.6,12.47-12.47C379.34,380.68,373.75,375.09,366.87,375.09z"/>
		</g>
		<g>
			<path class="st1" d="M602.84,325.07c-5.6,0-10.16-4.56-10.16-10.16c0-5.6,4.56-10.16,10.16-10.16c5.6,0,10.16,4.56,10.16,10.16
				C613,320.52,608.45,325.07,602.84,325.07z M602.84,307.76c-3.95,0-7.16,3.21-7.16,7.16c0,3.95,3.21,7.16,7.16,7.16
				c3.95,0,7.16-3.21,7.16-7.16C610,310.97,606.79,307.76,602.84,307.76z"/>
		</g>
		<g>
			<path class="st1" d="M433.45,394.56c-19.98,0-36.24-16.26-36.24-36.24c0-19.98,16.26-36.24,36.24-36.24s36.24,16.26,36.24,36.24
				C469.69,378.3,453.44,394.56,433.45,394.56z M433.45,325.07c-18.33,0-33.24,14.91-33.24,33.24c0,18.33,14.91,33.24,33.24,33.24
				s33.24-14.91,33.24-33.24C466.69,339.99,451.78,325.07,433.45,325.07z"/>
		</g>
		<g>
			<g>
				<path class="st1" d="M216.26,126.29c-0.19,0-0.39-0.04-0.58-0.12l-25.75-10.78c-0.76-0.32-1.12-1.2-0.8-1.96
					c0.32-0.76,1.2-1.12,1.96-0.8l25.75,10.78c0.76,0.32,1.12,1.2,0.8,1.96C217.4,125.95,216.85,126.29,216.26,126.29z"/>
			</g>
			<g>
				<path class="st1" d="M198.33,133.65c-0.19,0-0.39-0.04-0.58-0.12c-0.76-0.32-1.12-1.2-0.8-1.96l10.78-25.75
					c0.32-0.76,1.2-1.12,1.96-0.8c0.76,0.32,1.12,1.2,0.8,1.96l-10.78,25.75C199.47,133.3,198.91,133.65,198.33,133.65z"/>
			</g>
		</g>
		<g>
			<g>
				<linearGradient id="SVGID_4_" gradientUnits="userSpaceOnUse" x1="469.9334" y1="427.6764" x2="500.8901" y2="390.7665">
					<stop  offset="0" style="stop-color:#8566FF"/>
					<stop  offset="0.1777" style="stop-color:#846BFF"/>
					<stop  offset="0.3803" style="stop-color:#8078FF"/>
					<stop  offset="0.5952" style="stop-color:#798FFF"/>
					<stop  offset="0.8171" style="stop-color:#6FAFFF"/>
					<stop  offset="1" style="stop-color:#66CFFF"/>
				</linearGradient>
				<path class="st4" d="M503.35,410.32c-0.47,0-0.94-0.22-1.23-0.64l-16.05-22.84c-0.48-0.68-0.31-1.61,0.37-2.09
					c0.68-0.47,1.61-0.31,2.09,0.37l16.05,22.84c0.48,0.68,0.31,1.61-0.37,2.09C503.95,410.23,503.65,410.32,503.35,410.32z"/>
			</g>
			<g>
				<linearGradient id="SVGID_5_" gradientUnits="userSpaceOnUse" x1="470.1704" y1="427.8752" x2="501.1272" y2="390.9652">
					<stop  offset="0" style="stop-color:#8566FF"/>
					<stop  offset="0.1777" style="stop-color:#846BFF"/>
					<stop  offset="0.3803" style="stop-color:#8078FF"/>
					<stop  offset="0.5952" style="stop-color:#798FFF"/>
					<stop  offset="0.8171" style="stop-color:#6FAFFF"/>
					<stop  offset="1" style="stop-color:#66CFFF"/>
				</linearGradient>
				<path class="st5" d="M484.26,406.99c-0.47,0-0.94-0.22-1.23-0.64c-0.48-0.68-0.31-1.61,0.37-2.09l22.84-16.05
					c0.68-0.48,1.61-0.31,2.09,0.37c0.48,0.68,0.31,1.61-0.37,2.09l-22.84,16.05C484.86,406.9,484.56,406.99,484.26,406.99z"/>
			</g>
		</g>
		<g>
			<g>
				<linearGradient id="SVGID_6_" gradientUnits="userSpaceOnUse" x1="687.921" y1="306.4692" x2="608.3421" y2="411.3111">
					<stop  offset="0" style="stop-color:#FFCC4A"/>
					<stop  offset="0.2096" style="stop-color:#FFC74A"/>
					<stop  offset="0.4486" style="stop-color:#FFBA4A"/>
					<stop  offset="0.7021" style="stop-color:#FFA34A"/>
					<stop  offset="0.9641" style="stop-color:#FF834A"/>
					<stop  offset="1" style="stop-color:#FF7E4A"/>
				</linearGradient>
				<path class="st6" d="M671.77,349.21c-0.59,0-1.14-0.35-1.39-0.92l-10.75-25.76c-0.32-0.76,0.04-1.64,0.81-1.96
					c0.77-0.32,1.64,0.04,1.96,0.81l10.75,25.76c0.32,0.76-0.04,1.64-0.81,1.96C672.16,349.18,671.96,349.21,671.77,349.21z"/>
			</g>
			<g>
				<linearGradient id="SVGID_7_" gradientUnits="userSpaceOnUse" x1="688.1963" y1="306.6782" x2="608.6176" y2="411.5199">
					<stop  offset="0" style="stop-color:#FFCC4A"/>
					<stop  offset="0.2096" style="stop-color:#FFC74A"/>
					<stop  offset="0.4486" style="stop-color:#FFBA4A"/>
					<stop  offset="0.7021" style="stop-color:#FFA34A"/>
					<stop  offset="0.9641" style="stop-color:#FF834A"/>
					<stop  offset="1" style="stop-color:#FF7E4A"/>
				</linearGradient>
				<path class="st7" d="M653.84,341.84c-0.59,0-1.14-0.35-1.38-0.92c-0.32-0.76,0.04-1.64,0.81-1.96l25.76-10.75
					c0.77-0.32,1.64,0.04,1.96,0.81c0.32,0.76-0.04,1.64-0.81,1.96l-25.76,10.75C654.23,341.81,654.04,341.84,653.84,341.84z"/>
			</g>
		</g>
		<g>
			<g>
				<linearGradient id="SVGID_8_" gradientUnits="userSpaceOnUse" x1="589.4284" y1="273.3334" x2="606.2354" y2="273.3334">
					<stop  offset="0" style="stop-color:#FF4A4A"/>
					<stop  offset="1" style="stop-color:#B32E2C"/>
				</linearGradient>
				<path class="st8" d="M604.74,276.51c-0.12,0-0.24-0.01-0.35-0.04l-13.81-3.35c-0.81-0.2-1.3-1.01-1.1-1.81
					c0.2-0.81,1.01-1.3,1.81-1.1l13.81,3.35c0.81,0.2,1.3,1.01,1.1,1.81C606.03,276.05,605.41,276.51,604.74,276.51z"/>
			</g>
			<g>
				<linearGradient id="SVGID_9_" gradientUnits="userSpaceOnUse" x1="594.8112" y1="273.238" x2="601.1631" y2="273.238">
					<stop  offset="0" style="stop-color:#FF4A4A"/>
					<stop  offset="1" style="stop-color:#B32E2C"/>
				</linearGradient>
				<path class="st9" d="M596.31,281.64c-0.12,0-0.24-0.01-0.35-0.04c-0.81-0.2-1.3-1.01-1.1-1.81l3.35-13.8
					c0.2-0.81,1.01-1.3,1.81-1.1c0.81,0.2,1.3,1.01,1.1,1.81l-3.35,13.8C597.6,281.18,596.99,281.64,596.31,281.64z"/>
			</g>
		</g>
		<g>
			<g>
				<path class="st1" d="M243.08,415.16c-0.56,0-1.09-0.31-1.35-0.84l-6.21-12.78c-0.36-0.75-0.05-1.64,0.69-2
					c0.75-0.36,1.64-0.05,2,0.69l6.21,12.78c0.36,0.75,0.05,1.64-0.69,2C243.53,415.11,243.3,415.16,243.08,415.16z"/>
			</g>
			<g>
				<path class="st1" d="M233.76,411.93c-0.56,0-1.09-0.31-1.35-0.84c-0.36-0.75-0.05-1.64,0.69-2l12.78-6.21
					c0.75-0.36,1.64-0.05,2,0.69c0.36,0.75,0.05,1.64-0.69,2l-12.78,6.21C234.21,411.88,233.98,411.93,233.76,411.93z"/>
			</g>
		</g>
	</g>
	<g>
		<g>
			<defs>
				<path id="XMLID_7_" d="M103.71,430.15L103.71,430.15c-6.14,1.84-12.6-1.65-14.44-7.79l-24.54-82.01
					c-1.84-6.14,1.65-12.6,7.79-14.44l0,0c6.14-1.84,12.6,1.65,14.44,7.79l24.54,82C113.33,421.85,109.84,428.31,103.71,430.15z"/>
			</defs>
			
				<linearGradient id="XMLID_3_" gradientUnits="userSpaceOnUse" x1="71.6419" y1="356.7895" x2="94.8412" y2="356.7895" gradientTransform="matrix(0.958 -0.2867 0.2557 0.8543 -82.8668 97.0926)">
				<stop  offset="0" style="stop-color:#FF4A4A"/>
				<stop  offset="1" style="stop-color:#B32E2C"/>
			</linearGradient>
			<use xlink:href="#XMLID_7_"  style="overflow:visible;fill:url(#XMLID_3_);"/>
			<clipPath id="XMLID_6_">
				<use xlink:href="#XMLID_7_"  style="overflow:visible;"/>
			</clipPath>
			<path class="st10" d="M111.35,374.36c0,0-26.8-0.8-22.84,12.41l5,25.39c3.06,10.23,19.15,9.75,22.91-0.69
				c0.06-0.17,0.12-0.33,0.18-0.51c0,0,6.02,21.88-20.94,25.77c-26.95,3.89-42.14-110.08-42.14-110.08l42.85-0.64L111.35,374.36z"/>
		</g>
		<g>
			<defs>
				<polygon id="XMLID_5_" points="47.11,338.12 50.05,347.93 52.98,357.75 214.36,383.53 191.08,305.73 167.8,227.93 				"/>
			</defs>
			<use xlink:href="#XMLID_5_"  style="overflow:visible;fill:#FFFFFF;"/>
			<clipPath id="XMLID_11_">
				<use xlink:href="#XMLID_5_"  style="overflow:visible;"/>
			</clipPath>
			<linearGradient id="SVGID_10_" gradientUnits="userSpaceOnUse" x1="78.2132" y1="288.3789" x2="92.4238" y2="403.9578">
				<stop  offset="0" style="stop-color:#FFCC4A"/>
				<stop  offset="0.2096" style="stop-color:#FFC74A"/>
				<stop  offset="0.4486" style="stop-color:#FFBA4A"/>
				<stop  offset="0.7021" style="stop-color:#FFA34A"/>
				<stop  offset="0.9641" style="stop-color:#FF834A"/>
				<stop  offset="1" style="stop-color:#FF7E4A"/>
			</linearGradient>
			<path class="st11" d="M112.18,367.2c0,0-44.46-28.08-21.71-68.67l-31.35,28.63c0,0-1.08,18.13,12.97,33.64L112.18,367.2z"/>
			<path class="st12" d="M129.96,254.8c0,0,18.32,79.48-23.11,87.19c-41.43,7.71-63.48,7.11-63.48,7.11l6.05,28.04l188.41,16.25
				L173.1,190.17L129.96,254.8z"/>
		</g>
		<g>
			<defs>
				<path id="XMLID_1_" d="M227.64,294.79c13.25,44.26,7.61,85.04-12.58,91.08c-20.19,6.04-47.3-24.94-60.54-69.2
					c-13.25-44.26-7.61-85.04,12.58-91.08C187.29,219.55,214.39,250.53,227.64,294.79z"/>
			</defs>
			
				<linearGradient id="XMLID_12_" gradientUnits="userSpaceOnUse" x1="202.9177" y1="214.2649" x2="202.9177" y2="606.4783" gradientTransform="matrix(0.958 -0.2867 0.2867 0.958 -96.3575 53.0029)">
				<stop  offset="0" style="stop-color:#FF4A4A"/>
				<stop  offset="1" style="stop-color:#B32E2C"/>
			</linearGradient>
			<use xlink:href="#XMLID_1_"  style="overflow:visible;fill:url(#XMLID_12_);"/>
			<clipPath id="XMLID_13_">
				<use xlink:href="#XMLID_1_"  style="overflow:visible;"/>
			</clipPath>
			<path class="st13" d="M210.93,231.32c0,0-44.3-21.01-55.04,21.4c-10.74,42.41,21.27,130.72,58.66,123.17
				c37.39-7.54,7.31-116.74,7.31-116.74s48.64,136.44-13.04,135.64c-61.68-0.81-97.77-151.35-84.08-177.61
				C138.44,190.91,201.9,218.54,210.93,231.32z"/>
		</g>
		<g>
			<defs>
				
					<ellipse id="SVGID_11_" transform="matrix(0.958 -0.2867 0.2867 0.958 -79.1354 68.1456)" cx="193.12" cy="304.29" rx="28.01" ry="64.8"/>
			</defs>
			<use xlink:href="#SVGID_11_"  style="overflow:visible;fill:#5757B5;"/>
			<clipPath id="SVGID_12_">
				<use xlink:href="#SVGID_11_"  style="overflow:visible;"/>
			</clipPath>
			<path class="st14" d="M218.09,262.88c0,0-29.09-12.64-36.86,18.84c-7.76,31.48,19.65,77.57,44.14,59.5
				c24.49-18.07,11.62-43.68,11.62-43.68s8.98,67.9-26.86,71.86c-35.84,3.96-50.57-50.47-59.29-90.04
				c-8.72-39.57,22.85-59.35,30.06-57.9C188.11,222.91,218.09,262.88,218.09,262.88z"/>
			<g class="st15">
				<defs>
					<polygon id="XMLID_9_" points="187,283.82 105.22,285.06 133.67,370.64 199.25,324.76 					"/>
				</defs>
				<use xlink:href="#XMLID_9_"  style="overflow:visible;fill:#FFFFFF;"/>
				<clipPath id="XMLID_14_">
					<use xlink:href="#XMLID_9_"  style="overflow:visible;"/>
				</clipPath>
				<path class="st16" d="M184.54,283.86c0,0-17.69,5.46-12.16,23.94c5.53,18.48,24.1,7.71,24.1,7.71l10.28,13.24l-32.63,24.35
					c0,0-25.96-41.52-19.83-76.68C160.45,241.25,184.54,283.86,184.54,283.86"/>
			</g>
			<g class="st15">
				<defs>
					
						<ellipse id="XMLID_8_" transform="matrix(0.958 -0.2867 0.2867 0.958 -79.1353 68.1456)" cx="193.12" cy="304.29" rx="9.23" ry="21.36"/>
				</defs>
				<use xlink:href="#XMLID_8_"  style="overflow:visible;fill:#FFFFFF;"/>
				<clipPath id="XMLID_15_">
					<use xlink:href="#XMLID_8_"  style="overflow:visible;"/>
				</clipPath>
				<path class="st17" d="M201.35,290.64c0,0-9.59-4.17-12.15,6.21c-2.56,10.38,6.48,25.57,14.55,19.61
					c8.07-5.96,3.83-14.4,3.83-14.4s2.96,22.38-8.86,23.69c-11.82,1.3-16.67-16.64-19.54-29.68c-2.87-13.04,7.53-19.57,9.91-19.09
					C191.47,277.46,201.35,290.64,201.35,290.64z"/>
			</g>
		</g>
	</g>
	<g>
		<g class="st18">
			<polygon class="st19" points="563.28,339.66 225.08,360.91 254.24,258.07 592.44,236.82 			"/>
			<text transform="matrix(0.9412 -0.0591 -0.2728 0.9621 303.5931 333.7146)" class="st19 st20 st21">SOON</text>
		</g>
		<g>
			<g>
				<linearGradient id="SVGID_13_" gradientUnits="userSpaceOnUse" x1="577.7206" y1="213.1334" x2="109.0905" y2="411.4482">
					<stop  offset="0" style="stop-color:#FFCC4A"/>
					<stop  offset="0.2096" style="stop-color:#FFC74A"/>
					<stop  offset="0.4486" style="stop-color:#FFBA4A"/>
					<stop  offset="0.7021" style="stop-color:#FFA34A"/>
					<stop  offset="0.9641" style="stop-color:#FF834A"/>
					<stop  offset="1" style="stop-color:#FF7E4A"/>
				</linearGradient>
				<polygon class="st22" points="553.28,329.66 215.08,350.91 244.24,248.07 582.44,226.82 				"/>
				<text transform="matrix(0.9412 -0.0591 -0.2728 0.9621 293.5931 323.7146)" class="st1 st20 st21">SOON</text>
			</g>
		</g>
	</g>
	<g>
		<g class="st18">
			<polygon class="st19" points="528.98,245.16 190.87,267.8 219.61,164.84 557.72,142.21 			"/>
			<text transform="matrix(0.941 -0.063 -0.2688 0.9632 226.9532 243.1737)" class="st19 st20 st21">COMING</text>
		</g>
		<g>
			<g>
				<linearGradient id="SVGID_14_" gradientUnits="userSpaceOnUse" x1="543.8395" y1="135.36" x2="174.9982" y2="257.8863">
					<stop  offset="0" style="stop-color:#FF4A4A"/>
					<stop  offset="1" style="stop-color:#B32E2C"/>
				</linearGradient>
				<polygon class="st23" points="518.98,235.16 180.87,257.8 209.61,154.84 547.72,132.21 				"/>
				<text transform="matrix(0.941 -0.063 -0.2688 0.9632 216.9532 233.1737)" class="st1 st20 st21">COMING</text>
			</g>
		</g>
	</g>
	<g>
		<polygon class="st1" points="695.34,77.99 605.63,157.62 602.34,160.55 602.41,156.35 602.98,122.4 605.32,123.15 559.31,184.79 
			603.22,121.64 605.5,118.37 605.57,122.4 606.14,156.35 602.91,155.07 676.53,60.37 		"/>
		<linearGradient id="SVGID_15_" gradientUnits="userSpaceOnUse" x1="715.8138" y1="122.4423" x2="551.8799" y2="220.3132">
			<stop  offset="0" style="stop-color:#FF4A4A"/>
			<stop  offset="1" style="stop-color:#B32E2C"/>
		</linearGradient>
		<polygon class="st24" points="699.76,141.63 583.56,191.8 692.29,127.02 		"/>
		<linearGradient id="SVGID_16_" gradientUnits="userSpaceOnUse" x1="719.6171" y1="179.6809" x2="518.9813" y2="238.4037">
			<stop  offset="0" style="stop-color:#FFCC4A"/>
			<stop  offset="0.2096" style="stop-color:#FFC74A"/>
			<stop  offset="0.4486" style="stop-color:#FFBA4A"/>
			<stop  offset="0.7021" style="stop-color:#FFA34A"/>
			<stop  offset="0.9641" style="stop-color:#FF834A"/>
			<stop  offset="1" style="stop-color:#FF7E4A"/>
		</linearGradient>
		<polygon class="st25" points="686.67,195.61 598.43,208.87 685.19,188 		"/>
	</g>
</g>
</svg>
